<mxfile host="app.diagrams.net" modified="2024-04-02T02:33:39.735Z" agent="Mozilla/5.0 (Windows NT 10.0; Win64; x64) AppleWebKit/537.36 (KHTML, like Gecko) Chrome/123.0.0.0 Safari/537.36" version="24.2.1" etag="2vvbbqQs8pkOhxO1ABv9" type="github">
  <diagram name="第 1 页" id="0Il6x7EYwRzlB15K-uHS">
    <mxGraphModel>
      <root>
        <mxCell id="0" />
        <mxCell id="1" parent="0" />
      </root>
    </mxGraphModel>
  </diagram>
</mxfile>
